<mxfile host="app.diagrams.net" agent="Mozilla/5.0 (Windows NT 10.0; Win64; x64) AppleWebKit/537.36 (KHTML, like Gecko) Chrome/131.0.0.0 Safari/537.36 Edg/131.0.0.0" version="26.1.3">
  <diagram name="第 1 页" id="yAuFlQw5YX6C3fwK3jp1">
    <mxGraphModel dx="1514" dy="1313" grid="0" gridSize="10" guides="1" tooltips="1" connect="1" arrows="1" fold="1" page="0" pageScale="1" pageWidth="827" pageHeight="583" math="0" shadow="0">
      <root>
        <mxCell id="0" />
        <mxCell id="1" parent="0" />
        <mxCell id="IfXCv2rlE8njJcD9jX4L-9" style="edgeStyle=none;curved=1;rounded=0;orthogonalLoop=1;jettySize=auto;html=1;entryX=0.5;entryY=0;entryDx=0;entryDy=0;fontSize=12;startSize=8;endSize=8;" edge="1" parent="1" source="IfXCv2rlE8njJcD9jX4L-1" target="IfXCv2rlE8njJcD9jX4L-2">
          <mxGeometry relative="1" as="geometry" />
        </mxCell>
        <mxCell id="IfXCv2rlE8njJcD9jX4L-1" value="开始" style="strokeWidth=2;html=1;shape=mxgraph.flowchart.terminator;whiteSpace=wrap;" vertex="1" parent="1">
          <mxGeometry x="73" y="-174" width="100" height="60" as="geometry" />
        </mxCell>
        <mxCell id="IfXCv2rlE8njJcD9jX4L-11" style="edgeStyle=none;curved=1;rounded=0;orthogonalLoop=1;jettySize=auto;html=1;exitX=0.5;exitY=1;exitDx=0;exitDy=0;entryX=0.5;entryY=0;entryDx=0;entryDy=0;fontSize=12;startSize=8;endSize=8;" edge="1" parent="1" source="IfXCv2rlE8njJcD9jX4L-2" target="IfXCv2rlE8njJcD9jX4L-3">
          <mxGeometry relative="1" as="geometry" />
        </mxCell>
        <mxCell id="IfXCv2rlE8njJcD9jX4L-2" value="进入图像检测页面" style="rounded=0;whiteSpace=wrap;html=1;" vertex="1" parent="1">
          <mxGeometry x="63" y="-77" width="120" height="60" as="geometry" />
        </mxCell>
        <mxCell id="IfXCv2rlE8njJcD9jX4L-12" style="edgeStyle=none;curved=1;rounded=0;orthogonalLoop=1;jettySize=auto;html=1;exitX=0.5;exitY=1;exitDx=0;exitDy=0;entryX=0.5;entryY=0;entryDx=0;entryDy=0;fontSize=12;startSize=8;endSize=8;" edge="1" parent="1" source="IfXCv2rlE8njJcD9jX4L-3" target="IfXCv2rlE8njJcD9jX4L-7">
          <mxGeometry relative="1" as="geometry" />
        </mxCell>
        <mxCell id="IfXCv2rlE8njJcD9jX4L-3" value="点击图像检测按钮" style="rounded=0;whiteSpace=wrap;html=1;" vertex="1" parent="1">
          <mxGeometry x="63" y="20" width="120" height="60" as="geometry" />
        </mxCell>
        <mxCell id="IfXCv2rlE8njJcD9jX4L-14" style="edgeStyle=none;curved=1;rounded=0;orthogonalLoop=1;jettySize=auto;html=1;exitX=0.5;exitY=1;exitDx=0;exitDy=0;entryX=0.5;entryY=0;entryDx=0;entryDy=0;fontSize=12;startSize=8;endSize=8;" edge="1" parent="1" source="IfXCv2rlE8njJcD9jX4L-4" target="IfXCv2rlE8njJcD9jX4L-5">
          <mxGeometry relative="1" as="geometry" />
        </mxCell>
        <mxCell id="IfXCv2rlE8njJcD9jX4L-4" value="是否检测" style="rhombus;whiteSpace=wrap;html=1;" vertex="1" parent="1">
          <mxGeometry x="83" y="210" width="80" height="80" as="geometry" />
        </mxCell>
        <mxCell id="IfXCv2rlE8njJcD9jX4L-5" value="检测成功" style="rounded=0;whiteSpace=wrap;html=1;" vertex="1" parent="1">
          <mxGeometry x="63" y="327" width="120" height="60" as="geometry" />
        </mxCell>
        <mxCell id="IfXCv2rlE8njJcD9jX4L-6" value="结束" style="strokeWidth=2;html=1;shape=mxgraph.flowchart.terminator;whiteSpace=wrap;" vertex="1" parent="1">
          <mxGeometry x="73" y="424" width="100" height="60" as="geometry" />
        </mxCell>
        <mxCell id="IfXCv2rlE8njJcD9jX4L-13" style="edgeStyle=none;curved=1;rounded=0;orthogonalLoop=1;jettySize=auto;html=1;exitX=0.5;exitY=1;exitDx=0;exitDy=0;entryX=0.5;entryY=0;entryDx=0;entryDy=0;fontSize=12;startSize=8;endSize=8;" edge="1" parent="1" source="IfXCv2rlE8njJcD9jX4L-7" target="IfXCv2rlE8njJcD9jX4L-4">
          <mxGeometry relative="1" as="geometry" />
        </mxCell>
        <mxCell id="IfXCv2rlE8njJcD9jX4L-7" value="填写相关信息和上传所需检测图片" style="rounded=0;whiteSpace=wrap;html=1;" vertex="1" parent="1">
          <mxGeometry x="63" y="115" width="120" height="60" as="geometry" />
        </mxCell>
        <mxCell id="IfXCv2rlE8njJcD9jX4L-15" style="edgeStyle=none;curved=1;rounded=0;orthogonalLoop=1;jettySize=auto;html=1;exitX=0.5;exitY=1;exitDx=0;exitDy=0;entryX=0.5;entryY=0;entryDx=0;entryDy=0;entryPerimeter=0;fontSize=12;startSize=8;endSize=8;" edge="1" parent="1" source="IfXCv2rlE8njJcD9jX4L-5" target="IfXCv2rlE8njJcD9jX4L-6">
          <mxGeometry relative="1" as="geometry" />
        </mxCell>
      </root>
    </mxGraphModel>
  </diagram>
</mxfile>
